<svg id="Layer_1" data-name="Layer 1" xmlns="http://www.w3.org/2000/svg" viewBox="0 0 79.2 43.28"><defs><style>.cls-1,.cls-2{fill:#644242;}.cls-2{fill-rule:evenodd;}</style></defs><title>7spa</title><path class="cls-1" d="M5.45,35.89a5.19,5.19,0,0,1-.16-1.18c-.05-.18.25-.45.21-.63-.05-.42-.28-1.53-.33-.89a21.1,21.1,0,0,0,0,2.45c.1.7.24,1.37.4,2.06,0,.2,0,.38,0,.57,0-.25,0-.5,0-.78s-.31-.78-.38-1.36c0-.09.23-.07.17-.25Zm.81-.23a2.09,2.09,0,0,0,0,.44,1.31,1.31,0,0,0,0-.44Zm.62,5.41-.16-.22a2.12,2.12,0,0,0-.25-1.17l-.09.2c.06.2.13.23.15.09a2.94,2.94,0,0,0,.22,1.3c.06,0,.14-.07.13-.2Zm-.54-4.64,0-.07,0,.16v-.09Zm.51,5.1h0l-.1-.25,0,0,.12.25Zm-.58-4.3c0,.11,0,.16.1.24,0-.16,0-.33,0-.49a1.17,1.17,0,0,1-.08.25Zm0-.88h0l0-.26a1.19,1.19,0,0,1-.07.25c0-.05.08-.08.11,0Zm-.65-32,.21,0-.21,0Zm.54,32c0,.05-.07.13-.09.16a.91.91,0,0,0,.09-.16ZM6,33l0-.05L6,33ZM47.1,10.09h-.48a1,1,0,0,1,.24.07c.1,0,.16,0,.24-.07Zm-1,0-.07,0,.16,0Zm-.07,0h0l-.25,0a1,1,0,0,1,.24.05c-.05,0-.08-.06,0-.09Zm0,.09.16.07L46,10.19Zm-.24-.05a1.51,1.51,0,0,0-.42,0,2.4,2.4,0,0,0,.42,0Zm4.82,0-.25.07a2.14,2.14,0,0,0-1.14,0l.17.1c.2,0,.24-.06.1-.1a4.07,4.07,0,0,0,1.27.09c0-.06,0-.12-.15-.15Zm-4.78.77c-.08,0-.07-.18-.23-.13a7.75,7.75,0,0,1-1.08.17c-.16.05-.43-.17-.59-.12-.39.07-1.37.37-.79.34.88,0,1.44-.12,2.23-.17s1.25-.2,1.9-.29a3.85,3.85,0,0,1,.53,0l-.71-.08c-.34-.05-.74.22-1.26.28ZM8.23,15.37l.25,0-.25,0ZM51,10.28l-.26,0v0l.25,0Zm-6.89.33a4,4,0,0,1-1.27-.08c.15,0,.11.09-.09.11l-.17-.1a2.13,2.13,0,0,1,1.14,0l.25-.08c.12,0,.12.09.15.15l.26,0a4.58,4.58,0,0,0-.76-.22l-3.14.06a.3.3,0,0,1-.23.07,1,1,0,0,0-.24-.07h-.44l-.16,0h0c-.08,0-.06.06,0,.09l.16.07-.16-.07a1,1,0,0,0-.24-.05l-.19,0,.15,0h0l.2,0h.05l.07,0h-1l-.21,0a1,1,0,0,1-.64,0h-.18l0,0-.07,0h-.76l-1.52,0c-3.31,0-6.36.26-9.79.52-1.86.14-3.65.26-5.41.42-2.28.19-4.38.62-6.56,1a23.16,23.16,0,0,0,.91-2.24c.59-1.78.93-4.18-.72-6.09C11.83,2.35,9.66,2.17,7.7,1.81A20.07,20.07,0,0,0,2,2.33C.22,3.08,1.38,4,1.48,4c1.24.72,2,.08,4.18.33-1.1-.19,1.41-.71,2.74,0,2,1,4.22,1,3.86,3.39a13.62,13.62,0,0,1-.32,1.8c-.37,1.07-.85,2.14-1.32,3.27l-.89.1a30.9,30.9,0,0,0-5.05,1.39c-1.59.86-.43,1.42-.34,1.45,1.21.41,1.86-.24,3.89-.41-.7,0,.44-.46,1.63-.6L9.76,15c-.69,1.9-1.36,3.84-2.14,5.89A18.26,18.26,0,0,0,6.95,24c-.17.7-.53,1.4-.67,2a11.35,11.35,0,0,0-.41,2.46c.13-.82.22-1.47.44-2.39.15-.61.2.51.16.93,0,.18-.34.41-.32.59a6.07,6.07,0,0,0-.07,1.17c0,.18-.23.11-.22.2-.06.57.18,1.06,0,1.4l-.25.73a3,3,0,0,0-.09.46l0,.32c0,.76.09,1.63.15,2.43h0A3.29,3.29,0,0,1,6,33c-.07.14-.12.09-.11-.13L6,32.69a2.06,2.06,0,0,1-.16,1.21l.07.27c0,.13-.13.12-.2.14v.28a5,5,0,0,0,.35-.78,25.59,25.59,0,0,1,.48-3.29c0-.09-.08-.16,0-.26A1,1,0,0,0,6.69,30l.11-.45v-.17h0c0-.09-.06-.08-.1,0l-.12.14.12-.14a1,1,0,0,0,.12-.23c0-.07,0-.14,0-.2s0,.11,0,.17v.24h0v.13c.08-.35.17-.69.26-1,0-.08,0-.16,0-.22a.93.93,0,0,1,.21-.64l.05-.18,0,0,0-.06.25-.77q.23-.75.51-1.51c1.18-3.28,2.35-6.27,3.78-9.61l.34-.74c1.85-.18,3.95-1,5.94-1.14.62-.07,1.27-.19,2-.28,3.85-.3,7.37-1,11.44-1.2,1.07-.08,2-.32,2.91-.47.66-.07,1.38,0,1.92,0a17.51,17.51,0,0,0,2.28-.25c-.78.07-1.35.15-2.22.21-.58,0,.39-.28.78-.35.16-.05.43.17.59.11A7.27,7.27,0,0,0,39,11.15c.16-.05.15.16.23.13.52-.06.92-.34,1.26-.29l.71.07a3.18,3.18,0,0,0,.43,0l.29-.06c.69-.14,1.49-.26,2.23-.37v0Zm-36.35,15a1.48,1.48,0,0,1,.37-.77,1,1,0,0,1-.37.77ZM34.87,10.55a1.13,1.13,0,0,1,.81.06,1.63,1.63,0,0,1-.81-.06Zm8,0h0Z"/><path class="cls-1" d="M67,21.17l-.24,0a.08.08,0,0,0-.06.08.05.05,0,0,0,0,.05l.07,0H67a2.75,2.75,0,0,0,2-.74,2.54,2.54,0,0,0,.78-1.93,1.68,1.68,0,0,0-.13-.68,2.39,2.39,0,0,0-.29-.51l-.07-.08-.07-.07-.15-.12-.24-.17a2.71,2.71,0,0,0-.64-.24,4.26,4.26,0,0,0-1-.11h-.81l-.35,0h-.41l-.32,0h-.78l-.13,0a.07.07,0,0,0,0,.07.05.05,0,0,0,0,.05l.06,0h.29l.09,0a.56.56,0,0,1,.38.2.87.87,0,0,1,.11.44v0q0,.26,0,.69v3.67q0,.81,0,1.44a9.26,9.26,0,0,1-.05,1,2,2,0,0,1-.1.41.29.29,0,0,1-.23.2l-.08,0-.09,0h-.17l-.07,0a.06.06,0,0,0,0,0,.06.06,0,0,0,0,.06l.13,0h.65l.29,0h.29l.33,0h.9l.13,0a.06.06,0,0,0,0-.06.08.08,0,0,0,0,0,.09.09,0,0,0-.07,0H67l-.17,0h-.11l-.1,0a.4.4,0,0,1-.33-.2,1.17,1.17,0,0,1-.11-.41,9.09,9.09,0,0,1,0-1q0-.63,0-1.45V17.33a.4.4,0,0,1,0-.15.1.1,0,0,1,.07-.07l.21-.05.28,0h.06l.5,0a1.48,1.48,0,0,1,.67.27l.16.11.16.15a1.69,1.69,0,0,1,.21.26,2.5,2.5,0,0,1,.16.27,2,2,0,0,1,.22.67,4.57,4.57,0,0,1,0,.53,1.72,1.72,0,0,1-.56,1.3,1.93,1.93,0,0,1-1.38.53Z"/><path class="cls-1" d="M78.16,25h-.29a1,1,0,0,1-.25-.06,1.21,1.21,0,0,1-.42-.27,2.87,2.87,0,0,1-.54-1l-.52-1.33q-.32-.81-.65-1.7l-.93-2.42L74.05,17a2.84,2.84,0,0,0-.12-.3q0-.08-.09-.1h-.07a.25.25,0,0,0-.09.11q0,.09-.12.3l-2.54,7h0a3,3,0,0,1-.35.71.83.83,0,0,1-.59.35h-.31l-.07,0a.05.05,0,0,0,0,.05.06.06,0,0,0,.05.06l.16,0h.77l.31,0h.32l.23,0H72l.12,0a.06.06,0,0,0,0-.06.05.05,0,0,0,0-.05l-.08,0h-.2a.58.58,0,0,1-.23-.1.25.25,0,0,1-.11-.22,1.73,1.73,0,0,1,0-.35,3.33,3.33,0,0,1,.12-.41l.46-1.35s.52-1.52.53-1.58l.87-2.65c0-.08.06-.12.08-.12s.05,0,.08.11l.68,1.93.9,2.48L76,24.71l0,0a.18.18,0,0,1,0,0v0a.14.14,0,0,1,0,.11L76,25h0l-.06,0a.06.06,0,0,0,0,.05s0,0,.07.05l.18,0h.24l1,0H78l.16,0s.07,0,.07-.06,0,0,0-.06Z"/><path class="cls-1" d="M62.14,22.09a3,3,0,0,0-.5-.8,7.3,7.3,0,0,0-1-.91l-.31-.24q-.52-.43-.81-.72a2.22,2.22,0,0,1-.43-.56,1.52,1.52,0,0,1-.1-.29,1.43,1.43,0,0,1,0-.31,1.19,1.19,0,0,1,.4-1,1.45,1.45,0,0,1,1-.34,2.26,2.26,0,0,1,.72.1,1.5,1.5,0,0,1,.43.22,1,1,0,0,1,.17.16l.08.12.05.12c0,.05,0,.11.05.17s0,.1,0,.15a.52.52,0,0,1,0,.12.44.44,0,0,0,0,.11.06.06,0,0,0,.06,0s0,0,.06-.06a.84.84,0,0,0,0-.2q0-.29,0-.5c0-.14,0-.26,0-.36l0-.22c0-.05,0-.09,0-.1a.07.07,0,0,0,0-.06l-.09,0h-.15l-.24,0a3.28,3.28,0,0,0-.47-.08,5.34,5.34,0,0,0-.58,0,2.45,2.45,0,0,0-1.69.56,1.86,1.86,0,0,0-.63,1.46c0,.07,0,.15,0,.22a1.49,1.49,0,0,0,0,.22,2.46,2.46,0,0,0,.39.92,5,5,0,0,0,1,1.06l.5.43q.37.31.62.56a3.08,3.08,0,0,1,.41.48,1.76,1.76,0,0,1,.2.46,2,2,0,0,1,.06.52v.07a.23.23,0,0,1,0,.07,1.53,1.53,0,0,1-.44.92,1.5,1.5,0,0,1-1.15.42,2.17,2.17,0,0,1-1-.26,1.21,1.21,0,0,1-.61-.88,1.88,1.88,0,0,1,0-.23c0-.07,0-.13,0-.19a.28.28,0,0,0,0-.1s0,0-.07,0a.06.06,0,0,0-.06,0,.63.63,0,0,0,0,.13,1.32,1.32,0,0,1,0,.15,1.87,1.87,0,0,0,0,.22q0,.16,0,.37t0,.45a1.5,1.5,0,0,0,0,.27.22.22,0,0,0,.11.13h0l0,0a3,3,0,0,0,.73.22,4.45,4.45,0,0,0,.77.07,3.78,3.78,0,0,0,.89-.11,2.39,2.39,0,0,0,.79-.35,2,2,0,0,0,.43-.39,2.57,2.57,0,0,0,.28-.44,2.16,2.16,0,0,0,.2-.57A2.65,2.65,0,0,0,62.3,23a3.39,3.39,0,0,0,0-.48,2,2,0,0,0-.12-.45Z"/><path class="cls-1" d="M13.33,25c-.16-.08-.17-.12-.17-.42,0-.55.05-1,.07-1.18s0-.18.09-.18.11,0,.11.13a1.68,1.68,0,0,0,0,.41,1.7,1.7,0,0,0,1.83,1.11c1.14,0,1.74-.64,1.74-1.49s-.43-1.18-1.46-1.95L15,21.06c-1.25-.93-1.66-1.62-1.66-2.39,0-1.32,1-2.1,2.57-2.1a5.6,5.6,0,0,1,1.2.13,1.51,1.51,0,0,0,.41.05c.09,0,.12,0,.12.08s-.05.42-.05,1.18c0,.17,0,.25-.09.25s-.09-.05-.11-.14a2.07,2.07,0,0,0-.17-.55c-.08-.13-.46-.55-1.5-.55-.84,0-1.54.42-1.54,1.21s.36,1.12,1.5,1.89l.33.22c1.41,1,1.89,1.74,1.89,2.7a2.18,2.18,0,0,1-1.08,1.91,3.55,3.55,0,0,1-1.84.39,4.25,4.25,0,0,1-1.68-.3Z"/><path class="cls-1" d="M20.94,20c0-1.74,0-2.05,0-2.41s-.09-.57-.47-.62l-.39,0a.11.11,0,0,1-.09-.09c0-.07.05-.09.18-.09.53,0,1.28,0,1.34,0s2.5,0,2.76,0,.43-.05.53-.07a.74.74,0,0,1,.16-.05s.05.05.05.11-.07.21-.09.53c0,.11,0,.61-.07.74s-.05.12-.11.12-.09-.05-.09-.14a1.23,1.23,0,0,0-.07-.39c-.08-.18-.2-.26-.83-.34-.2,0-1.54,0-1.67,0s-.07,0-.07.12v3c0,.08,0,.12.07.12s1.67,0,1.93,0,.45,0,.57-.16.13-.14.17-.14.07,0,.07.09a6.1,6.1,0,0,0-.09.62c0,.22-.05.64-.05.72s0,.21-.11.21-.08,0-.08-.11a1,1,0,0,0-.05-.37c0-.16-.14-.29-.59-.34s-1.55-.05-1.75-.05A.07.07,0,0,0,22,21v.93c0,.38,0,1.68,0,1.91,0,.75.24.89,1.38.89a3.86,3.86,0,0,0,1.16-.12.85.85,0,0,0,.53-.78c0-.13.05-.17.12-.17s.08.09.08.17a9.24,9.24,0,0,1-.16,1.08c-.08.29-.2.29-.64.29-.87,0-1.54,0-2,0s-.79,0-1,0H21l-.67,0c-.12,0-.18,0-.18-.09a.09.09,0,0,1,.09-.09,3.27,3.27,0,0,0,.36-.05c.22,0,.25-.26.3-.59a22.86,22.86,0,0,0,.07-2.42V20Z"/><path class="cls-1" d="M31,23.73c.67-1.5,2.18-5.31,2.43-6.12a1.92,1.92,0,0,0,.11-.42.23.23,0,0,0-.16-.24,1.34,1.34,0,0,0-.39,0c-.07,0-.13,0-.13-.09s.08-.09.26-.09c.46,0,1,0,1.13,0l.91,0c.12,0,.18,0,.18.08s0,.11-.13.11a1.07,1.07,0,0,0-.55.13c-.16.11-.34.26-.64,1-.13.32-.7,1.66-1.29,3-.71,1.63-1.22,2.84-1.49,3.39s-.38.84-.5.84-.21-.14-.43-.68L27.49,17.8c-.26-.63-.42-.75-.8-.84a2.23,2.23,0,0,0-.45,0,.1.1,0,0,1-.09-.11c0-.07.12-.08.3-.08.55,0,1.21,0,1.35,0s.63,0,1.08,0q.32,0,.32.08a.11.11,0,0,1-.12.11,1.42,1.42,0,0,0-.42.05.18.18,0,0,0-.13.2,4.66,4.66,0,0,0,.32.93L31,23.73Z"/><path class="cls-1" d="M37.08,20c0-1.74,0-2.05,0-2.41s-.09-.57-.47-.62l-.39,0a.11.11,0,0,1-.09-.09c0-.07.05-.09.18-.09.53,0,1.28,0,1.34,0s2.5,0,2.76,0,.43-.05.53-.07a.74.74,0,0,1,.16-.05s.05.05.05.11-.07.21-.09.53c0,.11,0,.61-.07.74s-.05.12-.11.12-.09-.05-.09-.14a1.22,1.22,0,0,0-.07-.39c-.08-.18-.2-.26-.83-.34-.2,0-1.54,0-1.67,0s-.07,0-.07.12v3c0,.08,0,.12.07.12s1.67,0,1.93,0,.45,0,.57-.16.13-.14.17-.14.07,0,.07.09a6,6,0,0,0-.09.62c0,.22-.05.64-.05.72s0,.21-.11.21-.08,0-.08-.11a1,1,0,0,0-.05-.37c0-.16-.14-.29-.59-.34s-1.55-.05-1.75-.05a.07.07,0,0,0-.08.08v.93c0,.38,0,1.68,0,1.91,0,.75.24.89,1.38.89a3.85,3.85,0,0,0,1.16-.12.85.85,0,0,0,.53-.78c0-.13.05-.17.12-.17s.08.09.08.17a9.25,9.25,0,0,1-.16,1.08c-.08.29-.2.29-.64.29-.87,0-1.54,0-2,0s-.79,0-1,0h-.5l-.67,0c-.12,0-.18,0-.18-.09a.09.09,0,0,1,.09-.09,3.27,3.27,0,0,0,.36-.05c.22,0,.25-.26.3-.59a22.87,22.87,0,0,0,.07-2.42V20Z"/><path class="cls-1" d="M44.81,23.67c0,.92.13,1.2.45,1.28a2.75,2.75,0,0,0,.58.07.09.09,0,0,1,.09.09c0,.07-.08.09-.21.09-.66,0-1.12,0-1.22,0s-.59,0-1.12,0c-.12,0-.18,0-.18-.09a.09.09,0,0,1,.09-.09,1.82,1.82,0,0,0,.47-.07c.29-.08.33-.38.33-1.39V17.14c0-.45.07-.57.16-.57s.33.22.45.34,1.87,2,3.66,3.81c1.14,1.18,2.38,2.51,2.74,2.88L51,18c0-.72-.08-1-.43-1a3.69,3.69,0,0,0-.57-.05c-.08,0-.09-.07-.09-.11s.09-.08.22-.08c.53,0,1.08,0,1.21,0s.51,0,1,0c.12,0,.21,0,.21.08a.13.13,0,0,1-.13.11,1.31,1.31,0,0,0-.28,0c-.38.08-.41.3-.41,1l0,6.55c0,.74,0,.8-.09.8s-.24-.09-.88-.68c-.12-.11-1.79-1.75-3-3s-2.64-2.78-3-3.17l.13,5.27Z"/><polygon class="cls-1" points="17.35 29.23 16.73 29.23 15.13 33.89 13.53 29.23 12.91 29.23 14.85 34.55 15.4 34.55 17.35 29.23 17.35 29.23"/><path class="cls-2" d="M19.2,27.39v-.7h-.7v.7Zm-.07,7.17V29.23h-.56v5.32Z"/><path class="cls-1" d="M23,34.55v-.5h-.39c-.63,0-.82-.3-.82-.89V26.69h-.56v6.48a1.21,1.21,0,0,0,1.28,1.38Z"/><path class="cls-2" d="M28.13,34.55V30.91c0-1.12-.66-1.74-2.06-1.74a2,2,0,0,0-1.88.82l.41.35a1.52,1.52,0,0,1,1.47-.67c1.08,0,1.5.45,1.5,1.3v.6H25.84c-1.16,0-1.86.56-1.86,1.53a1.52,1.52,0,0,0,.39,1,2,2,0,0,0,1.57.49,2,2,0,0,0,1.62-.6v.53Zm-.56-1.86a1.36,1.36,0,0,1-.3,1,1.75,1.75,0,0,1-1.33.41c-1,0-1.39-.33-1.39-1S25,32,25.91,32h1.66v.68Z"/><path class="cls-1" d="M37.85,34.55v-3.4a2,2,0,0,0-.55-1.48,2,2,0,0,0-1.4-.51,2,2,0,0,0-1.81,1,1.81,1.81,0,0,0-1.71-1,2,2,0,0,0-1.58.7v-.63h-.56v5.32h.56v-3.3a1.41,1.41,0,0,1,1.5-1.59c.95,0,1.47.56,1.47,1.59v3.3h.56v-3.4a1.4,1.4,0,0,1,1.5-1.49c.95,0,1.47.56,1.47,1.59v3.3Z"/><path class="cls-2" d="M43.9,31.89a2.92,2.92,0,0,0-.66-2.14,2.16,2.16,0,0,0-3,0,2.92,2.92,0,0,0-.66,2.14A2.92,2.92,0,0,0,40.28,34a2.16,2.16,0,0,0,3,0,2.92,2.92,0,0,0,.66-2.14Zm-.56,0a2.48,2.48,0,0,1-.47,1.78,1.57,1.57,0,0,1-2.21,0,2.48,2.48,0,0,1-.47-1.78,2.48,2.48,0,0,1,.47-1.78,1.57,1.57,0,0,1,2.21,0,2.48,2.48,0,0,1,.47,1.78Z"/><path class="cls-1" d="M49.76,34.55V29.23H49.2v3.3a1.41,1.41,0,0,1-1.5,1.59c-.95,0-1.47-.56-1.47-1.59v-3.3h-.56v3.4a2,2,0,0,0,.55,1.48,2.16,2.16,0,0,0,3-.19v.63Z"/><path class="cls-1" d="M55.3,29.67A1.67,1.67,0,0,0,54,29.17a1.82,1.82,0,0,0-1.56.77v-.71H51.9v5.32h.56V31.27a1.46,1.46,0,0,1,1.42-1.61,1.22,1.22,0,0,1,1,.42l.41-.41Z"/><path class="cls-2" d="M60,34.55V30.91c0-1.12-.66-1.74-2.06-1.74a2,2,0,0,0-1.88.82l.41.35a1.52,1.52,0,0,1,1.47-.67c1.08,0,1.5.45,1.5,1.3v.6H57.71c-1.16,0-1.86.56-1.86,1.53a1.52,1.52,0,0,0,.39,1A2.63,2.63,0,0,0,59.43,34v.53Zm-.56-1.86a1.36,1.36,0,0,1-.3,1,1.75,1.75,0,0,1-1.33.41c-1,0-1.39-.33-1.39-1S56.86,32,57.78,32h1.66v.68Z"/></svg>