<svg xmlns="http://www.w3.org/2000/svg" xmlns:xlink="http://www.w3.org/1999/xlink" viewBox="0 0 465.27 168.33"><defs><style>.cls-1{fill:#dc2d27;}.cls-2{fill-rule:evenodd;fill:url(#New_Gradient_Swatch_1);}.cls-3{fill:#0584c7;}</style><linearGradient id="New_Gradient_Swatch_1" x1="213.38" y1="69.39" x2="213.38" y2="125.15" gradientUnits="userSpaceOnUse"><stop offset="0.01" stop-color="#76b0dc"/><stop offset="0.11" stop-color="#2cace3"/><stop offset="0.38" stop-color="#0890c9"/><stop offset="0.39" stop-color="#036bae"/><stop offset="1" stop-color="#27235f"/></linearGradient></defs><g id="Layer_2" data-name="Layer 2"><g id="Layer_1-2" data-name="Layer 1"><path class="cls-1" d="M192.15,32.54c-.12,10.08,3,19.08,13.28,24.09,14.11,7,51.56-4.71,40.43-49,9.4,6.26,14.23,24.09,6.55,40.08-8,16.63-29.9,27-49.55,18.36-12.44-5.48-19.41-20.63-10.71-33.57Z"/><path class="cls-1" d="M240.74,21.39c4,16.87-12.69,32.2-29.9,28.38-9.34-2-15.78-10.31-12.32-20.21,4.7-13.84,25.48-13.48,25,.77-.18,6.68-8.16,8.65-7.21,4.3.42-2,3.4-6.68-1.13-7.94-3.63-1-7,2.57-7.74,5.73-.89,3.76.3,7.39,4.11,8.89,8.22,3.1,15.3-2.15,17.8-8.59,2.74-7-1.31-14.5-7.74-18.07-8.22-4.66-18.34-3.4-26.44,1.85C177.62,28,177.32,47,179,58.9c-12.39-15.63-9.35-47.24,21.2-57.13,17.5-5.67,36.56,2.68,40.55,19.62Z"/><path class="cls-2" d="M292.18,69.81a7.25,7.25,0,0,0-2.08,1.13h0a6.43,6.43,0,0,0-1.37,1.73h0a4.14,4.14,0,0,0-.54,2h0a4.17,4.17,0,0,0,.54,2.09h0a6.43,6.43,0,0,0,1.37,1.73h0a7,7,0,0,0,2.08,1.13h0a7.39,7.39,0,0,0,2.56.42h0a7.5,7.5,0,0,0,2.62-.42h0a6.06,6.06,0,0,0,2-1.13h0a5.63,5.63,0,0,0,1.43-1.73h0a4.17,4.17,0,0,0,.54-2.09h0a4.14,4.14,0,0,0-.54-2h0a5.63,5.63,0,0,0-1.43-1.73h0a6.24,6.24,0,0,0-2-1.13h0a7.5,7.5,0,0,0-2.62-.42h0a7.39,7.39,0,0,0-2.56.42ZM38.35,112.75h9V69.87h-9ZM138.56,75.18v37.57h22.15v-8.47H152V98h7.33V89.67H152v-6h8.7V75.18Zm-125.64,0L0,112.75H8.34l2.56-8H22.81l2.44,8h9.64L22,75.18ZM16,87.4A38.84,38.84,0,0,0,17,82.87h.06A35,35,0,0,0,18,87.4h0l3.51,12.23H12.27ZM273.9,83.11a27.3,27.3,0,0,0-7.86,2h0v27.67H278.9V90.39a9.5,9.5,0,0,1,2.27-.06h0a6.92,6.92,0,0,1,2.61,1h0l2.15-8.35c-1.91-.12-3.75-.18-5.42-.18h0a55,55,0,0,0-6.61.36ZM405.37,84a12.58,12.58,0,0,0-4.82,3.22h0A12.44,12.44,0,0,0,397.69,92h0a17.74,17.74,0,0,0-.95,6h0a18.1,18.1,0,0,0,.95,5.9h0a12.84,12.84,0,0,0,3,4.83h0a12.76,12.76,0,0,0,5,3.34h0a18,18,0,0,0,7.08,1.26h0a38.87,38.87,0,0,0,7.75-.66h0a26.82,26.82,0,0,0,5.23-1.67h0L423,103.63a16.73,16.73,0,0,1-3.46,1h0a24.37,24.37,0,0,1-5,.48h0a6.74,6.74,0,0,1-3.75-.78h0a4,4,0,0,1-1.78-2.26h0l17.68-2.27a23.42,23.42,0,0,0-.48-6.92h0a13.07,13.07,0,0,0-2.5-5.37h0A12,12,0,0,0,419.07,84h0a16.86,16.86,0,0,0-6.85-1.26h0a18.2,18.2,0,0,0-6.85,1.2Zm3.28,7.57a3.14,3.14,0,0,1,3-1.85h0a2.56,2.56,0,0,1,2.38,1.49h0a9.32,9.32,0,0,1,.77,4.29h0l-6.73,1a8.91,8.91,0,0,1,.54-5Zm-26.8-7.81a11.59,11.59,0,0,0-4.34,2.8h0a13.88,13.88,0,0,0-3,4.71h0a18.43,18.43,0,0,0-1.13,6.62h0a19.14,19.14,0,0,0,1.07,6.74h0a12,12,0,0,0,2.86,4.83h0a12,12,0,0,0,4.34,2.86h0a14,14,0,0,0,5.48,1h0a17.42,17.42,0,0,0,5.24-.66h0a8.06,8.06,0,0,0,3-1.67h0l-2.62-7.16a3.68,3.68,0,0,1-2.68,1h0a3,3,0,0,1-2.68-1.61h0a11.15,11.15,0,0,1-1-5.37h0a11.32,11.32,0,0,1,1-5.43h0a3,3,0,0,1,2.68-1.61h0a3.89,3.89,0,0,1,1.49.24h0a5.84,5.84,0,0,1,1.19.66h0l2.5-6.56a9,9,0,0,0-3.39-1.73h0a19.57,19.57,0,0,0-4.94-.6h0a13.14,13.14,0,0,0-5.07,1Zm-36.38-.3A34,34,0,0,0,339.1,85h0v27.73H352V90.39a4.43,4.43,0,0,0,.72-.12h1a2.92,2.92,0,0,1,2.08.65h0a2.44,2.44,0,0,1,.66,1.85h0v20h12.92V92.65a10.73,10.73,0,0,0-.84-4.29h0a7.56,7.56,0,0,0-2.8-3.1h0A13.64,13.64,0,0,0,361,83.41h0a35.49,35.49,0,0,0-7.2-.66h0a50.35,50.35,0,0,0-8.28.66ZM313.74,84a12.54,12.54,0,0,0-4.83,3.22h0A14.1,14.1,0,0,0,306.05,92h0a17.74,17.74,0,0,0-.95,6h0a18.15,18.15,0,0,0,1,5.9h0a12,12,0,0,0,3,4.83h0a12.84,12.84,0,0,0,5,3.34h0a18.29,18.29,0,0,0,7.09,1.26h0a38.83,38.83,0,0,0,7.74-.66h0a27.15,27.15,0,0,0,5.24-1.67h0l-2.8-7.33a15.56,15.56,0,0,1-3.45,1h0a24.47,24.47,0,0,1-5,.48h0a6.76,6.76,0,0,1-3.75-.78h0a4.31,4.31,0,0,1-1.78-2.26h0l17.68-2.27a23.78,23.78,0,0,0-.47-6.92h0a13.08,13.08,0,0,0-2.51-5.37h0A11.92,11.92,0,0,0,327.43,84h0a16.86,16.86,0,0,0-6.85-1.26h0a18.11,18.11,0,0,0-6.84,1.2ZM317,91.52a3.21,3.21,0,0,1,3-1.85h0a2.56,2.56,0,0,1,2.38,1.49h0a9.32,9.32,0,0,1,.77,4.29h0l-6.73,1a9,9,0,0,1,.54-5ZM240.62,84a13,13,0,0,0-4.83,3.22h0A14.1,14.1,0,0,0,232.93,92h0a19.38,19.38,0,0,0-1,6h0a18.15,18.15,0,0,0,1,5.9h0a13.48,13.48,0,0,0,3,4.83h0a13.78,13.78,0,0,0,5,3.34h0a18.6,18.6,0,0,0,7.15,1.26h0a38.11,38.11,0,0,0,7.68-.66h0A25.86,25.86,0,0,0,261,111h0l-2.74-7.33a17.31,17.31,0,0,1-3.51,1h0a24.44,24.44,0,0,1-5,.48h0a6.91,6.91,0,0,1-3.76-.78h0a4.22,4.22,0,0,1-1.72-2.26h0L262,99.81a28.31,28.31,0,0,0-.48-6.92h0A14,14,0,0,0,259,87.52h0A11.82,11.82,0,0,0,254.37,84h0a17,17,0,0,0-6.85-1.26h0a18.43,18.43,0,0,0-6.9,1.2ZM244,91.52a3.07,3.07,0,0,1,3-1.85h0a2.65,2.65,0,0,1,2.44,1.49h0a10.14,10.14,0,0,1,.71,4.29h0l-6.73,1a8.94,8.94,0,0,1,.6-5Zm-39.84-8.11a26,26,0,0,0-5.71,1.67h0V124.5h12.92V112.75a7.05,7.05,0,0,0,1.61.24h0a16.65,16.65,0,0,0,2.56.12h0A13.86,13.86,0,0,0,221,112h0a13.38,13.38,0,0,0,4.4-3h0a14.21,14.21,0,0,0,2.86-4.77h0a16.78,16.78,0,0,0,1.07-6.2h0a16.41,16.41,0,0,0-1.31-6.92h0a12.84,12.84,0,0,0-3.51-4.77h0a13.44,13.44,0,0,0-5.36-2.74h0a23.85,23.85,0,0,0-6.79-.9h0a45.44,45.44,0,0,0-8.28.66ZM211.74,106a3.82,3.82,0,0,1-.42-.12h0V90a4.55,4.55,0,0,1,1.07-.06h0a3.37,3.37,0,0,1,3.28,1.91h0a14.68,14.68,0,0,1,1,6.2h0a13.93,13.93,0,0,1-1,6h0a3.3,3.3,0,0,1-3.34,1.91h-.59ZM90.45,83.53A34.55,34.55,0,0,0,85.86,85h0l2,4.83a22.39,22.39,0,0,1,3.63-1.19h0a15.62,15.62,0,0,1,4.4-.6h0a7.79,7.79,0,0,1,4,.84h0c1,.53,1.48,1.55,1.48,3.1h0v1.37a58.19,58.19,0,0,0-6.67.95h0a23.47,23.47,0,0,0-5.53,1.79h0a10.35,10.35,0,0,0-3.75,3.16h0A7.46,7.46,0,0,0,84,104h0q0,9.31,13.57,9.31h0a36.64,36.64,0,0,0,7.15-.6h0a20.55,20.55,0,0,0,5-1.61h0V93.55a12.76,12.76,0,0,0-.89-5.07h0a9.14,9.14,0,0,0-2.56-3.34h0a10.58,10.58,0,0,0-3.87-1.79h0a17.9,17.9,0,0,0-4.89-.6h0a27.15,27.15,0,0,0-7.08.78Zm3.45,23.91a4.4,4.4,0,0,1-1.49-3.75h0a6,6,0,0,1,.66-2.93h0a4.86,4.86,0,0,1,1.78-1.85h0a8.31,8.31,0,0,1,2.8-1.07h0a30.17,30.17,0,0,1,3.69-.54h0V108a7.41,7.41,0,0,1-3.27.6h0a6.4,6.4,0,0,1-4.17-1.14ZM61.45,83.89a12.61,12.61,0,0,0-5,3.16h0a15,15,0,0,0-3,5.07h0a21.37,21.37,0,0,0-.95,6.67h0a17.2,17.2,0,0,0,.95,5.91h0A12.91,12.91,0,0,0,56,109.17h0a12,12,0,0,0,4,2.8h0a13.21,13.21,0,0,0,5.12,1h0a17.08,17.08,0,0,0,3.33-.3h0a6.12,6.12,0,0,0,2.09-.66h0v1.61a5.54,5.54,0,0,1-1.43,4.06h0c-1,1-2.62,1.49-5,1.49h0a19.87,19.87,0,0,1-4.23-.48h0a18.31,18.31,0,0,1-3.45-1.25h0L54.24,123a18.37,18.37,0,0,0,4.89,1.61h0a37.7,37.7,0,0,0,6.67.59,19.42,19.42,0,0,0,5.47-.77h0a11.21,11.21,0,0,0,4.29-2.21h0a10.25,10.25,0,0,0,2.86-3.81h0a13.78,13.78,0,0,0,1-5.37h0V85a15.7,15.7,0,0,0-4.58-1.55h0a29.51,29.51,0,0,0-6.43-.66h0a18.86,18.86,0,0,0-7,1.14Zm1.31,21.82c-.95-1.61-1.43-4.11-1.43-7.45h0c0-3.52.48-6.14,1.49-7.93h0a5.25,5.25,0,0,1,5-2.63h0a6,6,0,0,1,2.8.48h0v19.2a5.62,5.62,0,0,1-3,.72h0a5.29,5.29,0,0,1-4.88-2.39Zm59.66-22.54A21.59,21.59,0,0,0,115.93,85h0v27.79h9v-24a6.43,6.43,0,0,1,2.74-.48h0a8.24,8.24,0,0,1,3.28.66h0l1.66-6c-1.37-.06-2.62-.12-3.81-.12h0a46.51,46.51,0,0,0-6.37.42Zm165.89,29.58h12.92V83.29H288.31ZM183.57,83.29l-3.39,6.26h-.12l-3-6.26H163.57l8.87,14.31-9.83,15.15h13l3.28-6.92h.18l3,6.92h14.23l-10-15.92,9.11-13.54Z"/><path class="cls-1" d="M460.63,141.2a.42.42,0,0,1-.24-.12,2.5,2.5,0,0,1,.36-.12c-.06.12-.06.24-.12.24Zm-1.37,2.2a8.5,8.5,0,0,0-2,2.93c-2.14,2-2.56,2.26-2.85,2.74-1.73,1.31-2.92,2.74-3.52,2.74-.17,0-.29-.06-.29-.3,0-.65,2.32-3.81,2.62-4.23,3.21-3.52,4.34-4.77,5.24-5.31a3.56,3.56,0,0,1,1.25-.77c.29,0,.41.18.41.47a14.58,14.58,0,0,0-.83,1.73Zm4.29-4.71c-2.09-.53-1.67-1-2.62-1a2.86,2.86,0,0,0-1.67-1c-1.43,0-3.16,1.85-5.36,4.72-1.61,1.25-1.37,1.9-2.26,2.56-2.27,3.34-2.32,3.28-2.5,4.23A4.41,4.41,0,0,1,448,149a7.38,7.38,0,0,0-.42,2c0,1.43,1.07,1.85,1.49,3.28a2.66,2.66,0,0,0,1.61,1.49,2.12,2.12,0,0,0,1.6-.9c2.74-1.31,3.46-1.73,3.75-2.56,2.62-2.09,3.1-2.86,3.58-2.86.12,0,.24.12.35.24a6.13,6.13,0,0,0-.29,2.26,2.71,2.71,0,0,0,1,2.57,7.49,7.49,0,0,1,.83.89,2.46,2.46,0,0,1-.12-.89,1.85,1.85,0,0,1,.06-.6l.54-3.16a11.91,11.91,0,0,1,.77-3.1c.84-2,1.37-4.65,2-5.31.12-.54.12-.95.18-1.19s.29-.72.29-.84c0-1-1.78-1.67-1.72-1.67Zm-23.34,1.37,1.19-.65a1.52,1.52,0,0,1,.71.42c-.3.89-.3,1.9-3,3.51a6.15,6.15,0,0,1-2,1c-.06,0-.36-.12-.89-.24,1.25-1.55,1.9-2.86,3.93-4Zm0,5.55c.59,0,7.08-.54,7.08-5.19,0-1.43-2.5-3.28-4.28-3.7-.07,0-1-.17-2.86-.41-.18-.06-.72-.6-.84-.6H439a1.06,1.06,0,0,1-.77.9l-1.25.65c-.89.9-1.55,1.55-2,2l-.72.6c-1.31,1-.77,1.43-1.49,1.84-.35,1.44-.83,1.08-.83,1.5a12,12,0,0,1-.54,1.72,9.34,9.34,0,0,0,1.67,5.19c1.19,1.37,3.51,3.76,5.3,3.76,4.76,0,8-4.17,8.22-4.35a8.33,8.33,0,0,0,.36-1.32c-.07,0-.18-.06-.3-.06s-1.73,1.26-3.52,2a10.85,10.85,0,0,1-3.81,1.08,2.56,2.56,0,0,1-1.78-.6c-1.49-.12-1.49-.12-2.27-1.07a2.5,2.5,0,0,1-.53-1.08,7.8,7.8,0,0,1,1.55-3.64q.89.72,3.93.72Zm-11.44-15.39-.47-.18a.3.3,0,0,0-.36,0,.65.65,0,0,0-.3-.06c-.12,0-.3,0-.36.06a.26.26,0,0,0-.17-.06c-1.19.3-2.21.3-3,.6a8.5,8.5,0,0,0-3.93,1.79c-2.26,1.37-1.67,1.31-2.08,1.85,0,.36-1,.83-1,1.37a29.45,29.45,0,0,0-1,3.52.54.54,0,0,1,.06.3c0,.06-.06.18-.12.65.54,2.21.83,2.87,2.08,3.7l.54.66c1.85,1.37,3.28,1.85,3.28,2.38,0,.18.47.3.47.48l.3.24.77.42.42.23.3.12.48.42.23.24.24.3v.24l-.12.35-.35.18h-.18c0,.54-.9,1.26-1.37,1.26a3.66,3.66,0,0,1-2-.42,11.1,11.1,0,0,1-2.74-.72h-.24a9.29,9.29,0,0,0-1.66-.35,2.51,2.51,0,0,0-2.2,1.07s.05.12.11.12c-.24.36-.35.65-.47.77v.18l.23.06c.13.06.24.18.3.18h.24v.12h.6l.47.42c.06,0,.18.12.3.12l.24-.12c.12.41,1.91.65,2,.71a2.55,2.55,0,0,0,.66.12.46.46,0,0,0,.18.12v-.06a.74.74,0,0,0,.35.06,10.29,10.29,0,0,0,1.79.36,7.25,7.25,0,0,0,1.55.06,9.66,9.66,0,0,0,2.26-.06,9.19,9.19,0,0,0,3.34-1l1.07-1.5a4.67,4.67,0,0,0,.18-2.56,6,6,0,0,0-2.27-3.58c-3.81-2.5-4.4-2.32-6.25-3.81a7.07,7.07,0,0,1-.95-1.67,4.73,4.73,0,0,1,.77-3.11l.18-.29a6.56,6.56,0,0,1,1.55-1.73c.06,0,.12-.12.18-.18l.42-.24c.11-.06.17-.12.29-.18l.3-.18a7.73,7.73,0,0,1,1.13-.36.76.76,0,0,0,.36-.06,2.18,2.18,0,0,0,.59.06,1.17,1.17,0,0,0,.48-.06c.18.12,1.07.12,1.07.36s1.31.3,1.13.3a4,4,0,0,0,.84-.06v-.06c0-.18.77.24,1-.42a4.41,4.41,0,0,1,.18-.41,16.72,16.72,0,0,0-.3-1.91c-.59-.66-.95-1.08-1.61-1.2Zm-37.09,9.84,1.19-.65a1.48,1.48,0,0,1,.71.42c-.3.89-.3,1.9-3,3.51a6.25,6.25,0,0,1-2,1c-.06,0-.36-.12-.89-.24,1.25-1.55,1.9-2.86,3.93-4Zm0,5.55c.59,0,7.08-.54,7.08-5.19,0-1.43-2.5-3.28-4.28-3.7-.06,0-1-.17-2.8-.41-.24-.06-.78-.6-.9-.6h-.35a1.08,1.08,0,0,1-.78.9l-1.25.65c-.89.9-1.54,1.55-2,2l-.72.6c-1.31,1-.77,1.43-1.49,1.84-.35,1.44-.83,1.08-.83,1.5a12,12,0,0,1-.54,1.72,9.34,9.34,0,0,0,1.67,5.19c1.19,1.37,3.51,3.76,5.3,3.76,4.77,0,8-4.17,8.22-4.35a4.38,4.38,0,0,0,.36-1.32c-.06,0-.18-.06-.24-.06-.3,0-1.79,1.26-3.57,2a10.62,10.62,0,0,1-3.82,1.08,2.58,2.58,0,0,1-1.78-.6c-1.49-.12-1.49-.12-2.26-1.07-.3-.54-.54-.84-.54-1.08a7.91,7.91,0,0,1,1.55-3.64q.88.72,3.93.72Zm-19.11-13.9a.39.39,0,0,0-.07-.23c.48-1,3.76-3.88,4.29-4.71a2.79,2.79,0,0,1,1.37-.6c-.24.65-.89,3.7-2.32,4.53a50.81,50.81,0,0,1-5.9,8.11c1.67-4.83,2.63-7.1,2.63-7.1Zm8,18.85a3.44,3.44,0,0,1-1,.12c-1,0-1.31-.42-1.31-1.37s1.19-4.65,2-8.71a19.3,19.3,0,0,0-2.39-.89,2.28,2.28,0,0,0-1.66,1.19c-2.92,2.62-2.21,3.76-3.64,4.71-2.67,3.58-2.14,6.5-3.39,6.5s-.77-1.73-.77-2.09v-.71l.77-4.59c.24-1.79,4.23-6.5,4.53-7.34,1.13-1.43,1.13-1.55,1.25-2.15h.89c-.06-.06-.12-.12-.12-.18,0-.47.89-1.07,1.37-1.07a.65.65,0,0,1-.06-.3,1.11,1.11,0,0,1,.54-.89.3.3,0,0,0,.18.06.35.35,0,0,0,.23-.06s-.41-.24-.41-.42c1.19-.42,1-.66,1.13-1,.42-.18.71-.42.95-.48,1.49-2.39,2.68-4.17,3.45-5.49,0-1.31-.71-3.16-1.6-3.16-.12,0-.06.06-.24.06s-1.73-.95-1.85-.95-.41.24-.77.77l-.6-.29-.65.47H377c-.18-.24-.24-.36-.42-.36a13.18,13.18,0,0,0-2.86,1.85,29.68,29.68,0,0,0-2.56,4.65,1.67,1.67,0,0,0,.06.6c-1.18,1.25-1.25,1.49-1.48,2.15a2.7,2.7,0,0,0-.72,1.25c0,.12.12.78.12,1.07v.18a13.43,13.43,0,0,0-1.25,2.93l-.77,2.8a5.33,5.33,0,0,0,.18.65,3.23,3.23,0,0,0-.54,1.55c0,.12.06.3.06.42a9.77,9.77,0,0,1-2.32,2.09c-3.1,2.86-5.06,3.82-5.12,5.19a2.33,2.33,0,0,0,.65.53c1.31-1.07,1.85-1.49,2.32-1.49h.3c.6-.71.48-.83.72-.89a1.46,1.46,0,0,1,.29.18l1.49-.9c.06,0,.24,0,.24.06v.48a11.69,11.69,0,0,0,.77,3.58.84.84,0,0,1,.42.24V152a8,8,0,0,0,2.56,2.33h.48c1.37-2.33,1.37-1.85,2-3.52a35,35,0,0,1,2.14-4.18c.18.18.3.24.36.36.18-.18,0-1.31.72-1.31.12,0,.18,0,.18.06v.06c.24,1.25.41,3.28.41,3.28a.54.54,0,0,0-.17.42,4.39,4.39,0,0,0,4.34,3.4,10.94,10.94,0,0,1,1.31-.42c2.38-.36,2.2-1.73,2.44-2.27a12.45,12.45,0,0,0-.42-1.85,14.25,14.25,0,0,0-2.32,2.21Zm-18.4-11.09a13.37,13.37,0,0,0,2.27-1.14h-.48c-.18,0-.3,0-.36-.11.18-.18,1.49-.72,1.49-.84h-.29a16.68,16.68,0,0,1-4.95.78,7.56,7.56,0,0,1-1.61-.12c-.06-.24-.11-.3-.17-.3h0c1-2.15,1.48-4,2.62-6a4.47,4.47,0,0,0,.29-1l.3-.42a6.55,6.55,0,0,0-1.9-.71c-.18,0-.66.12-.84.12a2.47,2.47,0,0,0-.71-.42h-.42c-.3,1.55-.6,3-1.19,3.58-.95,3-1.37,3.34-1.37,4.05-.6,1.2-.65,1.37-.89,1.61-1.49-.12-2.56-.12-3.28-.12s-.53.12-.95.3c2,2.21,2.86,3.1,2.86,3.4a9.38,9.38,0,0,0-1,2.51,15.45,15.45,0,0,0-1.49,5.84.46.46,0,0,0,.12.3c0,.3-.24,1-.24,1.31a3.55,3.55,0,0,0,.24.36c-.06.54-.12.89-.12,1.19a16,16,0,0,0,.12,2.39,13.79,13.79,0,0,0,1.66-3.22c.06-.06.06-.18.06-.36a2.76,2.76,0,0,0-.06-.6,2.25,2.25,0,0,1,.36-1.07c.24-.12.95-2.21,1.37-2.8a2.7,2.7,0,0,0,.12-.48l.24-.78a2.89,2.89,0,0,0,.65-1.37,26.88,26.88,0,0,0,1.67-3.34c2.5-1.31,4.05-1.13,4.29-1.67,1.37-.3,1.25-.89,1.6-.89Zm-29.89-.9c-2.62,0-1.55,1.43-2.74,3.05a15.3,15.3,0,0,0-1.84,2.56h-.12a.85.85,0,0,0-.36.12l-.42.42a3.25,3.25,0,0,0-1.13,1.07l-.06.18c-.29.24-3.57,2.86-4.82,2.86-.3,0-.41-.24-.41-.66s.41-.89.47-1.13c.78-2.09,2-4,2-4.89.24-.42,1.79-1.67,1.79-2.44a1.77,1.77,0,0,0-1.43-1.61c-1.84,0-3.33,2.26-3.39,2.38-1,1.31-2,2.51-2,3a1,1,0,0,0,.06.42c-.29.24-.53.42-.71.54a2.18,2.18,0,0,1,.06.65,6.15,6.15,0,0,1-.18,1.43c0,.12-.24.24-.24.36,0,1.55,2.26,3.76,3.75,5,1.19-.24,2.44.06,7-4.17h.3a.85.85,0,0,1,.12.36,2.06,2.06,0,0,1-.54,1.49c.24.18.42.35.54.35v.24a6.86,6.86,0,0,1-1,.48l-.89,2.74c-.24.42-1.13,2.93-1.67,3.76-.95,2.63-1.07,2.74-1.19,2.74s-.35-.18-.47-.18a18.39,18.39,0,0,0-1.67,3.46c-.24,1.26-.42,2.15-.54,2.81l-.12.24a1,1,0,0,0-.12.35,1.75,1.75,0,0,0,1.55,1.79h1.49a3.59,3.59,0,0,1,.54-1.61,2.49,2.49,0,0,0-.24-.65A4.75,4.75,0,0,0,325,164c-.3-.12-.42-.24-.42-.36,0-.42,1.31-.42,1.31-.77a.85.85,0,0,0-.12-.36c.06-.24.42-.3.42-.48a.74.74,0,0,0-.12-.42s.54-.59.83-.59c.06,0,.18.35.24.35a.05.05,0,0,0,.06,0,19.48,19.48,0,0,1,1.08-2.39c0-.18,0-.36-.07-.42.72-1,.66-1,.72-1.43.83-1.61,1.13-2,1.13-2.8V154a10.27,10.27,0,0,0,.89-2.45,28.09,28.09,0,0,0,2.39-6.44,40.15,40.15,0,0,0,.71-4.65c0-.3.3-.71.3-.89v-.3c-.9-.36-1.43-.6-1.61-.66a1.66,1.66,0,0,0-.48-.06Zm-21.55,3.82c-.3.12-.48.6-.48,1.49-.36.18-.83,2.57-1,2.86-.66,1.2-1.07,1.91-1.25,2.15a7.37,7.37,0,0,1-1.55.6,9.48,9.48,0,0,1-5.06,1.79,1.27,1.27,0,0,1-1-1,10.15,10.15,0,0,1,.83-2.38,35.52,35.52,0,0,1,5.9-6.15,6.51,6.51,0,0,1,2.56-1.67c.41,0,.77.78.77,1.26a.8.8,0,0,1-.12.41.61.61,0,0,0,.42.24Zm1.55-5.13c-.66-.24-1.14-.42-1.49-.59l-1.19-.24c-.48-.36-.72-.6-.84-.66-.53.78-.89,1.07-1.07,1.07s-.53-.12-.71-.12c-.54,0-5.84,4.95-6.43,5.91-1.43,2.15-1.43,2.5-2.5,3.34,0,.12.23.77.23.95,0,.48-.83.78-1,.78,0,.47-.24,1.67-.24,2.14,0,.06.24.3.24.48s-.12.24-.24.48c.24.24.12,2.74,1.79,2.74h.12l1.49,1.2a4.47,4.47,0,0,0,1.31.17,4,4,0,0,0,3.21-1.25,8,8,0,0,0,1.13-.18c5.84-2.8,7.57-4,8.28-7a7.33,7.33,0,0,0,.89-3.52c0-2.57-.35-5.67-3-5.67Zm-16.5,1.61v0Zm-8.75,25v-.54c.06,0,.12.24.18.54Zm5.06-24.39a11.26,11.26,0,0,1-3.1,4.17c-2.61,2.69-3.33,3.52-3.51,3.7a.22.22,0,0,0,.06.18l-.71.54c-.42.35-.6.65-.6.83s.3.36.3.48-.3.47-.3.59a.26.26,0,0,0,.06.18,16.7,16.7,0,0,0,3-1.55l.95-.89a5.91,5.91,0,0,1,1.13-.9c.3,0,.48.12.48.3s-.54,1.25-.54,1.37.42.54.42.66c0,.36-.6.3-.78.42-1.3,3-1.07,3-1.54,3.69-.48,1.91-1,2.21-1,2.87a16.86,16.86,0,0,0-1.72,4.23,8.62,8.62,0,0,1-1.25,3A6.34,6.34,0,0,1,283,166v.3c0,1.07,1.25,1.61,2.32,1.61h.36a12.29,12.29,0,0,1,.66-1.5,2.21,2.21,0,0,0-.3-.77c.24-.06.95-1.19,1.31-1.43a.6.6,0,0,0,.06.18q.18,0,.18-.36v-.42h-.06c.35-.71.83-1.13.83-1.55a2.58,2.58,0,0,0-.06-.65c1-.72.77-1.14.77-1.62a10.72,10.72,0,0,0,1.14-3c2-3.93,1.54-3.93,1.72-4.47a26.22,26.22,0,0,0,2-4.77,29.29,29.29,0,0,0,1.48-6.62v-1c.18-.72.24-1.08.3-1.08a4.55,4.55,0,0,0-1.25-.65c-1.19,0-2.26-.06-2.44,1.25Zm5.54-4.24a4.29,4.29,0,0,0,1.19-.23v-.36a1.62,1.62,0,0,0-.18-.48c0-.06.06-.06.06-.12a4.8,4.8,0,0,0-2-2.5,10.3,10.3,0,0,0-1.91-.12.94.94,0,0,0-.59.29,2.23,2.23,0,0,1,.53,1.08,13.51,13.51,0,0,0,2.92,2.44Zm-14,19.09.29-.24.3-.06-.24-.36-.89-2.09-.24-.83V149l.18-.6-.12-.83-.06-.12.24-.54.18-1,.71-2.21.42-1.13.06-1.25-.18-1.2-.59-.77-.48-.42-2.14-.77-1.55.29-1,.3L277,139.83v-1.5l-.6-.59-.53.12-.9-.06-.71.3L272.83,142l-.54,2.33-.77,2.5-.72,2-.29,1.55-.24.36.12.48.24.12.47.53.42.24.3.42h.77l.42.06v-.18l.35-.12.42-.54.42-1.13.18-.3V150l.41-.83.06-.3.9-2,.65-1.25.18-.66.24-.41.36-1.08.35-.41.48-1.32.83-.17.72.06.35.35.24.42-.12,1.07-.23,1.32v1.13l-.12.12.06.3-.36.71.24.12v2l.06.48-.06.23.83,2.51,1.43,1.61.95.24H283V154l.42.06Zm-16.08-14.73.06.06v-.06Zm3.57-7,.42-.24s.12,0,.12.06a3.15,3.15,0,0,1,1.19-.18,4.2,4.2,0,0,0,2.14-.59v-.24c-.71-.66-4.94-1-4.94-.78a2.35,2.35,0,0,1-.65-.06h-2.74a3.17,3.17,0,0,0-.78-.06h-1.37c-1.07,0-1.84.12-2.32.12a2.51,2.51,0,0,1-.42-.06h-.12a.72.72,0,0,0-.35-.06,2.24,2.24,0,0,0-1.85.48,1,1,0,0,0,.12.6,8.3,8.3,0,0,1-1.07,1l-.3.3h-.06a5.34,5.34,0,0,0-.71,1.07s0,.12.06.12l-.18.18v.12a1.59,1.59,0,0,1-.36.3,4.19,4.19,0,0,0,.42,1.13l.12.24c-1.19,4.47-1.55,4.41-1.55,5.49-.24,1.61-.36,2.8-.48,3.63a4,4,0,0,1,.06.78v.36c.89,3.63,1.37,3.75,2.15,4.47l.17.18c2,1.13,1.49.71,2.68.89.42.06.66.12.78.12a.21.21,0,0,0,.12-.06h.47a7.94,7.94,0,0,0,3.87-.95v-.18a1.45,1.45,0,0,0,.48-.84v-.05c.42-.42.18-.72.42-.72a.45.45,0,0,1-.06-.24l.06.06c0-.06.12-.12.18-.24s-.06-.06-.06-.18v-.41l-.06-.12-1.49.29-.72.18-1.6.3-1.26.18h-.83l-.18-.18-.06-.48c-1.43-.06-2-.65-2-2.44,0-.54.95-.48,1.25-.54a5.45,5.45,0,0,0,.59-.83,24.64,24.64,0,0,0,2.27-2.09c2.14-.36,2.85-.48,3-.66l.6-.23c.3-.12.48-.24.54-.24l.59-.12.12-.12.3-.12.41-.24v-.83c-.12-.12-.35-.12-.65-.12l-1.07.18-.18-.06a8,8,0,0,1-1.37-.06h-1.79a14,14,0,0,0-1.67.06l-1.25.06c-.05,0-.11-.12-.11-.18,0-1.32,1.25-3,1.36-3.4a4.11,4.11,0,0,1,1.38-1.08c3.63-2.56,1.66-1.31,3.63-1.73a2.75,2.75,0,0,1,.47-.11h.12c.42-.06,1.13,0,1.31-.18a.22.22,0,0,1,.18.06l.36-.06.53-.18c.54-.18.78-.18.78-.24a.45.45,0,0,0,.24.06c.29-.06.35,0,.59-.24Z"/><path class="cls-3" d="M431.17,83.34a5.45,5.45,0,1,1,5.44-5.45A5.44,5.44,0,0,1,431.17,83.34Zm0-9.73a4.27,4.27,0,1,0,4.22,4.28A4.25,4.25,0,0,0,431.17,73.61ZM432,80.8l-1.49-2.39h0V80.8h-1.32V75.05a3.88,3.88,0,0,1,1.71-.4c1.78,0,2.37,1.06,2.37,1.85a1.78,1.78,0,0,1-1.33,1.76l1.76,2.54Zm-1.2-5.06a1.06,1.06,0,0,0-.33,0v1.76h.2c.87,0,1.2-.24,1.2-1S431.3,75.74,430.81,75.74Z"/></g></g></svg>