<?xml version="1.0" encoding="UTF-8"?>
<!-- Generator: Adobe Illustrator 27.1.1, SVG Export Plug-In . SVG Version: 6.00 Build 0)  -->
<svg xmlns="http://www.w3.org/2000/svg" xmlns:xlink="http://www.w3.org/1999/xlink" version="1.1" id="Layer_1" x="0px" y="0px" viewBox="0 0 534.3 108.2" style="enable-background:new 0 0 534.3 108.2;" xml:space="preserve">
<style type="text/css">
	.st0{fill:url(#SVGID_1_);}
	.st1{fill:#48BBC8;}
	.st2{fill:url(#SVGID_00000072272640555468978500000017333307587409213057_);}
	.st3{fill:#FFFFFF;}
</style>
<g>
	<g>
		
			<linearGradient id="SVGID_1_" gradientUnits="userSpaceOnUse" x1="40.6316" y1="81.6002" x2="73.7816" y2="13.3403" gradientTransform="matrix(1 0 0 -1 0 107.8898)">
			<stop offset="8.000000e-02" style="stop-color:#48BBC8"></stop>
			<stop offset="1" style="stop-color:#1083C5"></stop>
		</linearGradient>
		<path class="st0" d="M108.1,50.2c0-0.5-0.1-1.1-0.1-1.6c-0.1-0.5-0.1-1-0.2-1.5c-0.1-0.4-0.1-0.8-0.2-1.2    c-0.1-0.6-0.2-1.1-0.3-1.7c-0.1-0.3-0.1-0.6-0.2-1c-0.1-0.6-0.3-1.3-0.4-1.9c-0.1-0.2-0.1-0.5-0.2-0.7c-0.2-0.7-0.4-1.3-0.6-2    c-0.1-0.2-0.1-0.4-0.2-0.5c-0.2-0.7-0.5-1.4-0.7-2.1c0-0.1-0.1-0.2-0.1-0.4c-0.3-0.8-0.6-1.5-0.9-2.2c0-0.1-0.1-0.2-0.1-0.2    c-0.3-0.8-0.7-1.5-1-2.3c0,0,0-0.1-0.1-0.1c-0.4-0.8-0.8-1.5-1.2-2.3c0,0,0,0,0,0c-2.5-4.6-5.6-8.8-9.2-12.4    c4,8.5,5.9,15.7,5.7,24.7c-0.2,9-5.2,18.9-15.9,18.9c-15.3,0-26.7-16-50.8-16c-17,0-26.1,7.5-31.2,16.4l0,0c0.2,1.7,0.4,3.4,0.8,5    c0,0.1,0,0.1,0,0.2c0,0.3,0.1,0.5,0.2,0.8c0.1,0.5,0.2,1,0.4,1.5c0,0.1,0.1,0.2,0.1,0.3c0.2,1,0.5,1.9,0.8,2.9    c0.1,0.2,0.2,0.4,0.2,0.7c0.2,0.7,0.5,1.5,0.8,2.2c0.1,0.2,0.2,0.5,0.3,0.7c0.3,0.7,0.6,1.4,0.9,2.2C4.9,76.5,5,76.7,5,76.9    c0.4,0.8,0.8,1.7,1.2,2.5c0,0,0,0.1,0,0.1c1.9,3.7,4.3,7.1,7,10.2c3.9-9.9,12.3-20,30.8-20c21.9,0,32.2,14.5,46.1,14.5    c5.3,0,10.6-3.7,14-9.6l0,0c1-2.4,1.8-4.8,2.4-7.3c0,0,0-0.1,0-0.1c0.2-0.8,0.4-1.6,0.5-2.4c0-0.1,0-0.2,0.1-0.3    c0.1-0.7,0.3-1.5,0.4-2.2c0-0.2,0.1-0.5,0.1-0.7c0.1-0.6,0.2-1.3,0.2-1.9c0-0.4,0.1-0.8,0.1-1.3c0-0.5,0.1-0.9,0.1-1.4    c0.1-0.9,0.1-1.8,0.1-2.7s0-1.9-0.1-2.8C108.2,50.9,108.1,50.6,108.1,50.2L108.1,50.2z"></path>
		<path class="st1" d="M31.5,43.6c24.1,0,35.5,16,50.8,16c10.7,0,15.7-9.9,15.9-18.9c0.2-9-1.7-16.2-5.7-24.7    C82.7,6.1,69.1,0,54.1,0C24.2,0,0,24.2,0,54.1c0,2,0.1,3.9,0.3,5.8C5.4,51,14.6,43.6,31.5,43.6L31.5,43.6z"></path>
		
			<linearGradient id="SVGID_00000039848221493999100500000000746964402433569973_" gradientUnits="userSpaceOnUse" x1="36.8564" y1="71.558" x2="63.6564" y2="15.528" gradientTransform="matrix(1 0 0 -1 0 107.8898)">
			<stop offset="0" style="stop-color:#48BBC8"></stop>
			<stop offset="0.15" style="stop-color:#3EB1C7"></stop>
			<stop offset="0.94" style="stop-color:#1083C5"></stop>
		</linearGradient>
		<path style="fill:url(#SVGID_00000039848221493999100500000000746964402433569973_);" d="M90.2,84.2c-13.9,0-24.2-14.5-46.1-14.5    c-18.5,0-26.9,10.1-30.8,20c9.9,11.4,24.5,18.6,40.8,18.6c22.6,0,42-13.9,50.1-33.6C100.9,80.5,95.5,84.2,90.2,84.2L90.2,84.2z"></path>
	</g>
	<g>
		<path class="st3" d="M60.5,61.7c11.6,0,11.3-12.1,11.3-13.2h-8.9c0,0.7-0.6,4.4-3.8,4.4c-4.7,0-8.2-5.1-15.5-5.1    c-11.6,0-11.4,12-11.4,13.2h9c0-0.6,0.4-4.4,3.8-4.4C49.5,56.6,53,61.7,60.5,61.7L60.5,61.7z"></path>
		<path class="st3" d="M49.5,60.9c-1.8-1-3.2-1.8-4.6-1.8c-0.6,0-0.9,0.4-1.1,0.9v24.3h9.3V62.7C51.8,62.2,50.6,61.5,49.5,60.9    L49.5,60.9z"></path>
		<path class="st3" d="M43.9,23.8v21.2c3.8,0.9,6.7,1.9,9.3,3.1V31.8h23.2v-8L43.9,23.8L43.9,23.8z"></path>
	</g>
</g>
<g>
	<g>
		<path class="st3" d="M184.6,22.8c12.3,0,15.1,8.1,15.1,23.2s-3.1,23.2-15.4,23.2s-15.1-8-15.1-23.2S172.3,22.8,184.6,22.8z     M192.8,46c0-11.9-1.4-17.3-8.3-17.3s-8.4,5.4-8.4,17.3s1.5,17.2,8.4,17.2S192.8,57.9,192.8,46z"></path>
		<path class="st3" d="M210.4,23.5h12c10.1,0,14.6,3.7,14.6,13.6c0,6.6-3.2,9.9-7.2,11.5c2.7,1.4,5.5,2.9,9.9,19.7h-7.2    c-4-14.5-5.8-17.2-12.2-17.2h-3v17.2h-6.9L210.4,23.5L210.4,23.5z M221.8,45.3c5.8,0,8.2-2.1,8.2-8.1s-2.4-7.7-7.9-7.7h-4.8v15.8    H221.8z"></path>
		<path class="st3" d="M283.5,68.4l-1-18.4c-0.4-9.1-0.7-18.7-0.7-18.7h-0.3l-5,16.1c-1.8,5.8-4.4,7.3-8,7.3c-3.3,0-5.9-1.3-7.7-7.3    l-4.9-16.2h-0.4c0,0-0.3,9-0.8,18.6l-1,18.5h-6.8l2.6-44.8h9.8l7.1,22.1c0.8,2.6,1.3,3.2,2.2,3.2c1.1,0,1.6-0.6,2.4-3l7.1-22.2    h9.6l2.7,44.8H283.5L283.5,68.4z"></path>
		<path class="st3" d="M315.1,22.8c12.3,0,15.1,8.1,15.1,23.2s-3.1,23.2-15.4,23.2s-15.1-8-15.1-23.2S302.8,22.8,315.1,22.8z     M323.2,46c0-11.9-1.4-17.3-8.3-17.3s-8.4,5.4-8.4,17.3s1.5,17.2,8.4,17.2S323.2,57.9,323.2,46z"></path>
		<path class="st3" d="M339.6,61.5c2.1,0.5,6.3,1.6,10.7,1.6c5.3,0,7.1-1.9,7.1-6.3c0-3.6-0.9-6.1-6.1-8.4l-2.5-1.1    c-6.4-2.8-9.7-5.7-9.7-13c0-8,5.1-11.3,12.6-11.3c4.6,0,8.9,0.8,10.9,1.5l-1.2,5.5c-2.8-0.6-6.2-1.1-9.1-1.1    c-4.2,0-6.6,1.5-6.6,5.5s1.9,5.3,5.7,7.1l2.4,1c6.7,3,10.2,5.7,10.2,14.2S360.6,69,351.4,69c-5.9,0-11.1-1.3-12.9-1.9L339.6,61.5    L339.6,61.5z"></path>
		<path class="st3" d="M447.7,68.4l-1-18.4c-0.4-9.1-0.7-18.7-0.7-18.7h-0.3l-5,16.1c-1.8,5.8-4.4,7.3-8,7.3c-3.3,0-5.9-1.3-7.7-7.3    l-5-16.2h-0.4c0,0-0.3,9-0.8,18.6l-1,18.5h-6.8l2.6-44.8h9.8l7.1,22.1c0.8,2.6,1.3,3.2,2.2,3.2c1.1,0,1.6-0.6,2.4-3l7.1-22.2h9.6    l2.7,44.8H447.7L447.7,68.4z"></path>
		<path class="st3" d="M503.3,23.5h12c10.1,0,14.6,3.7,14.6,13.6c0,6.6-3.2,9.9-7.2,11.5c2.7,1.4,5.5,2.9,9.8,19.7h-7.2    c-4-14.5-5.8-17.2-12.2-17.2h-3v17.2h-6.9L503.3,23.5L503.3,23.5z M514.7,45.3c5.8,0,8.2-2.1,8.2-8.1s-2.4-7.7-7.9-7.7h-4.8v15.8    H514.7z"></path>
		<path class="st3" d="M395.9,29.5c-1.2-6-5.4-6.8-8.3-6.8s-7.1,0.8-8.3,6.8l-8.1,38.9h7l2-10.1l1.2-6.6h0l4.3-21.4    c0.3-1.5,0.8-2,1.8-2s1.5,0.5,1.7,2.1l4,20.4l0,0l0.1,0.4l0.2,1.2h0l1.2,6.2h0l2,9.8h7.2L395.9,29.5L395.9,29.5z"></path>
		<path class="st3" d="M486.6,29.5c-1.2-6-5.4-6.8-8.3-6.8s-7.1,0.8-8.3,6.8l-8.1,38.9h7l1.9-9.8l1.2-6.9h0l4.3-21.4    c0.3-1.5,0.8-2,1.8-2s1.5,0.5,1.7,2.1l4.4,22h0l1.2,6.2h0l2,9.8h7.2L486.6,29.5L486.6,29.5z"></path>
		<g>
			<path class="st3" d="M138.4,23.5v15.9c2.9,0.1,5.1,1,6.9,2V29.5h17.2v-5.9L138.4,23.5L138.4,23.5z"></path>
			<path class="st3" d="M142.6,51c-1.3-0.7-2.4-1.3-3.4-1.3c-0.4,0-0.7,0.3-0.8,0.7v18h6.9V52.3C144.3,51.9,143.4,51.5,142.6,51     L142.6,51z"></path>
		</g>
		<path class="st3" d="M129.7,51.1c0-0.9-0.1-9.8,8.4-9.8c5.4,0,8,3.8,11.5,3.8c2.4,0,2.8-2.7,2.8-3.2h6.6c0,0.8,0.2,9.8-8.4,9.8    c-5.5,0-8.1-3.8-11.5-3.8c-2.5,0-2.8,2.8-2.8,3.2L129.7,51.1L129.7,51.1z"></path>
	</g>
	<g>
		<path class="st3" d="M145.1,83.8c1.9,0,3.4,0.5,4.5,1.5c1.1,1,1.6,2.3,1.6,3.9s-0.5,2.9-1.6,3.9c-1.1,1-2.6,1.5-4.5,1.5h-3.8v5.3    l2,0.3v1.6h-6.4v-1.6l2-0.3V85.7l-2-0.3v-1.6L145.1,83.8L145.1,83.8z M141.2,92.6h3.8c1.2,0,2.1-0.3,2.7-1s0.9-1.5,0.9-2.5    s-0.3-1.8-0.9-2.5s-1.5-1-2.7-1h-3.8V92.6z"></path>
		<path class="st3" d="M163.6,99.7c-0.4,0.7-1,1.3-1.6,1.7s-1.4,0.6-2.3,0.6c-1.4,0-2.6-0.5-3.4-1.4s-1.2-2.4-1.2-4.3v-5.9l-1.5-0.3    v-1.6h4v7.9c0,1.4,0.2,2.4,0.6,2.9s1.1,0.8,2,0.8s1.6-0.2,2.1-0.5s1-0.8,1.3-1.5v-7.7l-1.8-0.3v-1.6h4.2v11.4l1.5,0.3v1.6h-3.7    L163.6,99.7L163.6,99.7z"></path>
		<path class="st3" d="M170.5,89.9v-1.6h4.2l0.2,1.9c0.4-0.7,0.8-1.2,1.4-1.6s1.2-0.6,1.9-0.6c0.2,0,0.4,0,0.6,0    c0.2,0,0.4,0.1,0.5,0.1l-0.3,2.3l-1.4-0.1c-0.6,0-1.2,0.2-1.6,0.4c-0.4,0.3-0.8,0.7-1,1.3v7.7l2,0.3v1.6h-6.4v-1.6l2-0.3v-9.5    L170.5,89.9L170.5,89.9z"></path>
		<path class="st3" d="M187.8,102c-1.9,0-3.3-0.6-4.4-1.9c-1.1-1.2-1.6-2.8-1.6-4.8v-0.5c0-1.9,0.6-3.5,1.7-4.7    c1.1-1.3,2.5-1.9,4-1.9c1.8,0,3.1,0.5,4.1,1.6c0.9,1.1,1.4,2.5,1.4,4.3v1.5h-8.6l0,0.1c0,1.3,0.4,2.3,1,3.2    c0.6,0.8,1.5,1.2,2.6,1.2c0.8,0,1.5-0.1,2.2-0.3c0.6-0.2,1.2-0.6,1.6-1l0.9,1.6c-0.5,0.5-1.1,0.8-1.9,1.2    C189.9,101.8,188.9,102,187.8,102L187.8,102z M187.4,90c-0.8,0-1.5,0.3-2.1,1c-0.6,0.7-0.9,1.6-1.1,2.6l0,0.1h6.1v-0.3    c0-0.9-0.2-1.8-0.8-2.4S188.4,90,187.4,90z"></path>
		<path class="st3" d="M221,83.8v1.6l-2,0.3v16h-2.4l-8.6-13.8l-0.1,0v11.9l2,0.3v1.6h-6.4v-1.6l2-0.3V85.7l-2-0.3v-1.6h4.4    l8.6,13.8l0.1,0V85.7l-2-0.3v-1.6L221,83.8L221,83.8z"></path>
		<path class="st3" d="M232.6,101.7c-0.1-0.4-0.1-0.7-0.2-1c0-0.3-0.1-0.6-0.1-0.9c-0.5,0.6-1.1,1.1-1.8,1.5s-1.4,0.6-2.2,0.6    c-1.4,0-2.4-0.3-3.2-1c-0.7-0.7-1.1-1.6-1.1-2.9s0.5-2.2,1.5-2.9s2.4-1,4.2-1h2.5v-1.6c0-0.8-0.2-1.4-0.7-1.9s-1.2-0.7-2.1-0.7    c-0.6,0-1.1,0.1-1.6,0.2c-0.5,0.2-0.8,0.4-1.1,0.6l-0.3,1.4h-1.9v-2.6c0.6-0.5,1.3-0.9,2.2-1.2c0.9-0.3,1.8-0.4,2.8-0.4    c1.5,0,2.7,0.4,3.7,1.2c0.9,0.8,1.4,1.9,1.4,3.3V99c0,0.2,0,0.3,0,0.5c0,0.2,0,0.3,0,0.5l1,0.1v1.6L232.6,101.7L232.6,101.7z     M228.7,99.9c0.8,0,1.5-0.2,2.2-0.6c0.7-0.4,1.1-0.8,1.4-1.4v-2.2h-2.6c-1,0-1.8,0.2-2.4,0.7s-0.9,1-0.9,1.7c0,0.6,0.2,1,0.5,1.3    S227.9,99.9,228.7,99.9L228.7,99.9z"></path>
		<path class="st3" d="M243.1,85.2v3.2h2.5v1.8h-2.5v8.1c0,0.6,0.1,1.1,0.4,1.3c0.3,0.2,0.6,0.4,1,0.4c0.2,0,0.4,0,0.7-0.1    s0.5-0.1,0.7-0.1l0.3,1.7c-0.2,0.2-0.6,0.3-1,0.4c-0.4,0.1-0.9,0.1-1.3,0.1c-1,0-1.8-0.3-2.4-0.9c-0.6-0.6-0.9-1.5-0.9-2.8v-8.1    h-2.1v-1.8h2.1v-3.2L243.1,85.2L243.1,85.2z"></path>
		<path class="st3" d="M258.6,99.7c-0.4,0.7-1,1.3-1.6,1.7s-1.4,0.6-2.3,0.6c-1.4,0-2.6-0.5-3.4-1.4s-1.2-2.4-1.2-4.3v-5.9l-1.5-0.3    v-1.6h4v7.9c0,1.4,0.2,2.4,0.6,2.9s1.1,0.8,2,0.8c0.9,0,1.6-0.2,2.1-0.5c0.6-0.3,1-0.8,1.3-1.5v-7.7l-1.8-0.3v-1.6h4.2v11.4    l1.5,0.3v1.6h-3.7L258.6,99.7L258.6,99.7z"></path>
		<path class="st3" d="M265.5,89.9v-1.6h4.2l0.2,1.9c0.4-0.7,0.8-1.2,1.4-1.6s1.2-0.6,1.9-0.6c0.2,0,0.4,0,0.6,0    c0.2,0,0.4,0.1,0.5,0.1l-0.3,2.3l-1.4-0.1c-0.6,0-1.2,0.2-1.6,0.4c-0.4,0.3-0.8,0.7-1,1.3v7.7l2,0.3v1.6h-6.5v-1.6l2-0.3v-9.5    L265.5,89.9L265.5,89.9z"></path>
		<path class="st3" d="M282.8,102c-1.9,0-3.3-0.6-4.4-1.9s-1.6-2.8-1.6-4.8v-0.5c0-1.9,0.6-3.5,1.7-4.7c1.1-1.3,2.5-1.9,4-1.9    c1.8,0,3.1,0.5,4.1,1.6c0.9,1.1,1.4,2.5,1.4,4.3v1.5h-8.6l0,0.1c0,1.3,0.4,2.3,1,3.2c0.6,0.8,1.5,1.2,2.6,1.2    c0.8,0,1.5-0.1,2.2-0.3c0.6-0.2,1.2-0.6,1.6-1l1,1.6c-0.5,0.5-1.1,0.8-1.9,1.2C284.9,101.8,283.9,102,282.8,102L282.8,102z     M282.4,90c-0.8,0-1.5,0.3-2.1,1c-0.6,0.7-0.9,1.6-1.1,2.6l0,0.1h6.1v-0.3c0-0.9-0.2-1.8-0.8-2.4S283.4,90,282.4,90z"></path>
		<path class="st3" d="M298.4,101.7v-1.6l2-0.3V85.7l-2-0.3v-1.6h13.8v4.3h-2.1l-0.2-2.4h-7.1v5.8h6.9v1.9h-6.9v6.4h7.2l0.2-2.4h2.1    v4.3L298.4,101.7L298.4,101.7z"></path>
		<path class="st3" d="M315.4,100.2l1.4-0.3l3.9-4.9l-3.8-4.8l-1.4-0.3v-1.6h5.2v1.6l-1.2,0.2l2.5,3.2l2.5-3.2l-1.2-0.1v-1.6h5.3    v1.6l-1.4,0.3l-3.8,4.8l3.9,4.9l1.4,0.3v1.6h-5.2v-1.6l1.2-0.1l-2.6-3.3l-2.6,3.3l1.2,0.1v1.6h-5.2L315.4,100.2L315.4,100.2z"></path>
		<path class="st3" d="M331.2,105.3l2-0.3V90.3l-2-0.3v-1.6h4.1l0.2,1.6c0.4-0.6,1-1.1,1.6-1.4s1.4-0.5,2.2-0.5c1.6,0,2.9,0.7,3.9,2    c0.9,1.3,1.4,3,1.4,5.2v0.3c0,1.9-0.5,3.5-1.4,4.7s-2.2,1.8-3.8,1.8c-0.8,0-1.5-0.1-2.2-0.4s-1.1-0.7-1.6-1.2v4.6l2,0.3v1.6h-6.5    L331.2,105.3L331.2,105.3z M342.1,95.3c0-1.5-0.3-2.8-0.9-3.7s-1.5-1.4-2.6-1.4c-0.7,0-1.3,0.2-1.8,0.5c-0.5,0.3-0.9,0.7-1.2,1.3    v6.5c0.3,0.6,0.7,1,1.2,1.3c0.5,0.3,1.1,0.4,1.8,0.4c1.1,0,2-0.4,2.6-1.3s0.9-1.9,0.9-3.3L342.1,95.3L342.1,95.3z"></path>
		<path class="st3" d="M353.9,102c-1.9,0-3.3-0.6-4.4-1.9s-1.6-2.8-1.6-4.8v-0.5c0-1.9,0.6-3.5,1.7-4.7c1.1-1.3,2.5-1.9,4-1.9    c1.8,0,3.1,0.5,4.1,1.6c0.9,1.1,1.4,2.5,1.4,4.3v1.5h-8.6l0,0.1c0,1.3,0.4,2.3,1,3.2c0.6,0.8,1.5,1.2,2.6,1.2    c0.8,0,1.5-0.1,2.2-0.3c0.6-0.2,1.2-0.6,1.6-1l1,1.6c-0.5,0.5-1.1,0.8-1.9,1.2C355.9,101.8,355,102,353.9,102L353.9,102z     M353.5,90c-0.8,0-1.5,0.3-2.1,1c-0.6,0.7-0.9,1.6-1.1,2.6l0,0.1h6.1v-0.3c0-0.9-0.2-1.8-0.8-2.4S354.5,90,353.5,90z"></path>
		<path class="st3" d="M362.4,89.9v-1.6h4.2l0.2,1.9c0.4-0.7,0.8-1.2,1.4-1.6s1.2-0.6,1.9-0.6c0.2,0,0.4,0,0.6,0    c0.2,0,0.4,0.1,0.5,0.1l-0.3,2.3l-1.4-0.1c-0.6,0-1.2,0.2-1.6,0.4c-0.4,0.3-0.8,0.7-1,1.3v7.7l2,0.3v1.6h-6.5v-1.6l2-0.3v-9.5    L362.4,89.9L362.4,89.9z"></path>
		<path class="st3" d="M373.9,100.2l2-0.3v-9.5l-2-0.3v-1.6h4.4v11.4l2,0.3v1.6h-6.5V100.2L373.9,100.2z M378.3,85h-2.4v-2.5h2.4V85    z"></path>
		<path class="st3" d="M389.3,102c-1.9,0-3.3-0.6-4.4-1.9s-1.6-2.8-1.6-4.8v-0.5c0-1.9,0.6-3.5,1.7-4.7c1.1-1.3,2.5-1.9,4-1.9    c1.8,0,3.1,0.5,4.1,1.6c0.9,1.1,1.4,2.5,1.4,4.3v1.5h-8.6l0,0.1c0,1.3,0.4,2.3,1,3.2c0.6,0.8,1.5,1.2,2.6,1.2    c0.8,0,1.5-0.1,2.2-0.3c0.6-0.2,1.2-0.6,1.6-1l1,1.6c-0.5,0.5-1.1,0.8-1.9,1.2C391.4,101.8,390.4,102,389.3,102L389.3,102z     M388.9,90c-0.8,0-1.5,0.3-2.1,1c-0.6,0.7-0.9,1.6-1.1,2.6l0,0.1h6.1v-0.3c0-0.9-0.2-1.8-0.8-2.4S389.9,90,388.9,90z"></path>
		<path class="st3" d="M397.5,100.2l2-0.3v-9.5l-2-0.3v-1.6h4.2l0.2,2c0.4-0.7,1-1.3,1.7-1.7s1.4-0.6,2.3-0.6c1.4,0,2.5,0.4,3.3,1.3    c0.8,0.8,1.2,2.1,1.2,3.9v6.5l2,0.3v1.6h-6.5v-1.6l2-0.3v-6.5c0-1.2-0.2-2-0.7-2.5c-0.5-0.5-1.2-0.7-2.1-0.7    c-0.7,0-1.3,0.2-1.9,0.5c-0.5,0.3-1,0.8-1.3,1.4v7.8l2,0.3v1.6h-6.5L397.5,100.2L397.5,100.2z"></path>
		<path class="st3" d="M421,100.1c0.8,0,1.5-0.2,2.1-0.8c0.6-0.5,0.9-1.1,0.9-1.8h2.2l0,0.1c0,1.2-0.5,2.2-1.5,3.1s-2.3,1.3-3.7,1.3    c-1.9,0-3.4-0.6-4.4-1.9c-1-1.3-1.5-2.9-1.5-4.8v-0.5c0-1.9,0.5-3.5,1.5-4.8s2.5-1.9,4.4-1.9c1.1,0,2,0.2,2.9,0.5s1.5,0.8,2.1,1.4    l0.1,3h-1.9l-0.5-2.1c-0.3-0.3-0.7-0.5-1.1-0.7c-0.5-0.2-1-0.3-1.5-0.3c-1.3,0-2.2,0.5-2.7,1.4c-0.5,0.9-0.8,2-0.8,3.4v0.5    c0,1.4,0.3,2.5,0.8,3.4S419.7,100,421,100.1L421,100.1z"></path>
		<path class="st3" d="M435.7,102c-1.9,0-3.3-0.6-4.4-1.9s-1.6-2.8-1.6-4.8v-0.5c0-1.9,0.6-3.5,1.7-4.7c1.1-1.3,2.5-1.9,4-1.9    c1.8,0,3.1,0.5,4.1,1.6c0.9,1.1,1.4,2.5,1.4,4.3v1.5h-8.6l0,0.1c0,1.3,0.4,2.3,1,3.2c0.6,0.8,1.5,1.2,2.6,1.2    c0.8,0,1.5-0.1,2.2-0.3c0.6-0.2,1.2-0.6,1.6-1l1,1.6c-0.5,0.5-1.1,0.8-1.9,1.2C437.8,101.8,436.8,102,435.7,102L435.7,102z     M435.3,90c-0.8,0-1.5,0.3-2.1,1c-0.6,0.7-0.9,1.6-1.1,2.6l0,0.1h6.1v-0.3c0-0.9-0.2-1.8-0.8-2.4S436.3,90,435.3,90z"></path>
		<path class="st3" d="M454.4,92.6h-1.8l-0.4-1.6c-0.3-0.3-0.7-0.5-1.1-0.7c-0.5-0.2-1-0.2-1.5-0.2c-0.9,0-1.5,0.2-1.9,0.6    S447,91.4,447,92s0.2,0.9,0.5,1.2c0.4,0.3,1.1,0.6,2.3,0.8c1.7,0.4,2.9,0.8,3.8,1.5s1.2,1.4,1.2,2.5c0,1.2-0.5,2.1-1.4,2.9    s-2.2,1.1-3.8,1.1c-1,0-1.9-0.1-2.7-0.3c-0.8-0.2-1.5-0.6-2.2-1v-3h1.8l0.5,1.8c0.3,0.2,0.7,0.4,1.1,0.6c0.5,0.1,1,0.2,1.5,0.2    c0.9,0,1.5-0.2,2-0.5s0.7-0.8,0.7-1.4c0-0.5-0.2-1-0.6-1.3c-0.4-0.3-1.2-0.7-2.3-0.9c-1.6-0.3-2.8-0.8-3.7-1.4s-1.2-1.4-1.2-2.5    s0.5-2,1.4-2.8c0.9-0.8,2.1-1.2,3.6-1.2c1,0,1.9,0.1,2.7,0.4c0.8,0.3,1.5,0.6,2,1.1L454.4,92.6L454.4,92.6z"></path>
		<path class="st3" d="M468.1,94h-1.9v-2.2h1.9V94z"></path>
		<path class="st3" d="M480.3,85h8.9v2.2h-6.4v5.2h4.9v2.2h-4.9v7.1h-2.6V85z"></path>
		<path class="st3" d="M500.4,97.8h-5.3l-0.8,3.9h-2.6l3-14.4c0.4-2.2,2-2.5,3.1-2.5s2.6,0.3,3.1,2.5l3,14.4h-2.7L500.4,97.8    L500.4,97.8z M495.4,95.8h4.6l-1.6-8.2c-0.1-0.6-0.3-0.8-0.6-0.8s-0.6,0.2-0.7,0.7L495.4,95.8L495.4,95.8z"></path>
		<path class="st3" d="M508.3,85h4.4c3.8,0,5.4,1.4,5.4,5.1c0,2.5-1.2,3.7-2.7,4.3c1,0.5,2,1.1,3.7,7.3h-2.7    c-1.5-5.4-2.2-6.4-4.5-6.4h-1.1v6.4h-2.6L508.3,85L508.3,85z M512.6,93.1c2.2,0,3-0.8,3-3s-0.9-2.9-2.9-2.9h-1.8v5.9L512.6,93.1    L512.6,93.1z"></path>
		<path class="st3" d="M528.7,84.8c4.6,0,5.6,3,5.6,8.6s-1.2,8.6-5.7,8.6s-5.6-3-5.6-8.6S524.2,84.8,528.7,84.8z M531.7,93.4    c0-4.4-0.5-6.4-3.1-6.4s-3.1,2-3.1,6.4s0.5,6.4,3.1,6.4S531.7,97.8,531.7,93.4z"></path>
	</g>
</g>
</svg>
